<svg height="52.314" viewBox="0 0 55.421 52.314" width="55.421" xmlns="http://www.w3.org/2000/svg" xmlns:xlink="http://www.w3.org/1999/xlink"><linearGradient id="a" gradientUnits="objectBoundingBox" x1=".283" x2=".342" y2=".809"><stop offset="0" stop-color="#6fb0e0"/><stop offset="1" stop-color="#315876"/></linearGradient><path d="m-3366.689-12594.318 17.657-14.5v32.037l9.588-8.184s3.509-4.909 6.549 1.521 4.56 9.588 4.56 9.588.637 1.436 4.151 1.413 12.912-1.293 12.912-1.293-8.422 12.8-13.2 15.083-10.894.56-12.98 0a7.368 7.368 0 0 1 -4.911-4.8c-1.053-2.69-3.976-9.354-3.976-9.354s-1.17-3.276-5.145 0-12.746 11.108-12.746 11.108-2.573 1.521-2.455-2.922-.004-29.697-.004-29.697z" fill="#4e85ad" transform="translate(3366.693 12609.818)"/><path d="m-3366.638-12594.311 17.606-14.508v32.037l9.588-8.184s3.509-4.909 6.549 1.521 4.56 9.588 4.56 9.588.909 2.318 4.435 2.293 12.614-1.182 12.614-1.182-8.262 11.676-13.19 14.092-10.894.56-12.98 0a7.369 7.369 0 0 1 -4.911-4.8c-1.053-2.69-3.976-9.354-3.976-9.354s-1.17-3.276-5.145 0-12.366 11.1-12.366 11.1-2.573 1.521-2.455-2.922-.329-29.681-.329-29.681z" fill="url(#a)" transform="translate(3366.693 12608.818)"/></svg>