<svg height="866.736" viewBox="0 0 961.591 866.736" width="961.591" xmlns="http://www.w3.org/2000/svg" xmlns:xlink="http://www.w3.org/1999/xlink"><linearGradient id="a" gradientUnits="objectBoundingBox" x1=".51" x2=".509" y1="1" y2=".067"><stop offset="0" stop-color="#ccc"/><stop offset="1" stop-color="#d5d5d5"/></linearGradient><path d="m-7533.4-5117.716 11.642 580.336" fill="none" stroke="#ccc" stroke-width="2" transform="translate(7779.58 5117.736)"/><path d="m-7773.839-4253 257.5-284.032 703.355.013" fill="none" stroke="#ccc" stroke-width="2" transform="translate(7774.58 5117.736)"/><path d="m0 0h25v191h-25z" fill="url(#a)" transform="matrix(-1 0 0 -1 603.58 866.736)"/><path d="m0 0h25v191h-25z" fill="url(#a)" transform="matrix(-1 0 0 -1 302.58 866.736)"/><path d="m47.1 481.068c-4.729 0 3.057 20.129 7.3 20.129l487.124-.568c4.781 0 17.517-20.129 7.225-20.129s-501.649.568-501.649.568z" fill="url(#a)" transform="translate(126.887 175.221)"/><path d="m406.249 573.263-4.991-2.1-3.424-25.018h-45.59l-3.711 24.916-4.465 2.232a1.06 1.06 0 0 0 .474 2.008h61.295a1.06 1.06 0 0 0 .411-2.037z" fill="#e6e6e6" transform="translate(76.455 85.786)"/><path d="m397.038 518.673h-197.815a17.229 17.229 0 0 1 -17.19-17.229v-17.759h232.194v17.759a17.229 17.229 0 0 1 -17.19 17.229z" fill="#ccc" transform="translate(153.63 115.641)"/><path d="m414.25 383.452h-232.724v-122.723a17.249 17.249 0 0 1 17.229-17.229h198.266a17.249 17.249 0 0 1 17.229 17.229z" fill="#e6e6e6" transform="translate(153.872 230.452)"/><path d="m404.676 382.626h-195.615a8.757 8.757 0 0 1 -8.747-8.747v-102.844a8.757 8.757 0 0 1 8.747-8.747h195.615a8.757 8.757 0 0 1 8.747 8.747v102.844a8.757 8.757 0 0 1 -8.747 8.747z" fill="#fff" transform="translate(144.891 221.471)"/><path d="m427.1 362.006v.039a26.459 26.459 0 0 0 52.812 0 .6.6 0 0 0 -.163-.455.6.6 0 0 0 -.44-.19h-51.602a.606.606 0 0 0 -.607.606z" fill="#3f3d56" transform="translate(43.097 184.525)"/><path d="m470.9 301.354a.779.779 0 0 1 -.227.549l-17.973 17.967a.771.771 0 0 1 -.549.227h-24.69a.768.768 0 0 1 -.565-.245.78.78 0 0 1 -.21-.584 26.632 26.632 0 0 1 43.942-18.5.78.78 0 0 1 .27.56c.002.007.002.016.002.026z" fill="#e6e6e6" transform="translate(43.342 223.931)"/><path d="m457.786 443.144a6.014 6.014 0 1 1 -5.952-6.075 6.014 6.014 0 0 1 5.952 6.075z" fill="#e6e6e6" transform="translate(27.566 142.08)"/><path d="m490.7 443.482a6.014 6.014 0 1 1 -5.952-6.075 6.014 6.014 0 0 1 5.952 6.075z" fill="#3f3d56" transform="translate(11.832 141.918)"/><path d="m523.617 443.819a6.014 6.014 0 1 1 -5.952-6.075 6.014 6.014 0 0 1 5.952 6.075z" fill="#63cfff" transform="translate(-3.901 141.757)"/><path d="m313.532 324.395-55.176-.566a4.092 4.092 0 0 0 -.084 8.184l55.176.566a4.092 4.092 0 1 0 .084-8.184z" fill="#e6e6e6" transform="translate(119.123 201.847)"/><path d="m313.088 367.233-55.176-.566a4.089 4.089 0 0 0 -1.761 7.8 4.038 4.038 0 0 0 1.677.381l55.176.566a4.092 4.092 0 0 0 .084-8.184z" fill="#e6e6e6" transform="translate(119.337 181.369)"/><path d="m312.653 410.072-55.176-.566a4.092 4.092 0 0 0 -.084 8.184l55.176.566a4.092 4.092 0 0 0 .084-8.184z" fill="#e6e6e6" transform="translate(119.543 160.892)"/><path d="m297.83 324.234-39.474-.4a4.092 4.092 0 0 0 -.084 8.184l38.652.4a4.659 4.659 0 0 0 .906-8.176z" fill="#6393ff" transform="translate(119.123 201.847)"/><path d="m279.156 366.885-21.244-.218a4.089 4.089 0 0 0 -1.761 7.8l19.512.2a4.661 4.661 0 0 0 4.707-4.612 4.565 4.565 0 0 0 -1.215-3.174z" fill="#6c63ff" transform="translate(119.337 181.369)"/><path d="m308.53 410.03-51.053-.524a4.092 4.092 0 0 0 -.084 8.184l51.382.527a4.649 4.649 0 0 0 -.245-8.188z" fill="#63cfff" transform="translate(119.543 160.892)"/><path d="m567.7 282.341h-172.191c-.394 0-.709-.231-.709-.521s.315-.463.709-.521h172.191c.394 0 .708.231.708.521s-.319.521-.708.521z" fill="#3f3d56" transform="translate(-30.03 217.213)"/><ellipse cx="373.91" cy="492.959" fill="#3f3d56" rx="2.95" ry="3.008"/><ellipse cx="384.092" cy="492.959" fill="#3f3d56" rx="2.95" ry="3.008"/><ellipse cx="394.274" cy="492.959" fill="#3f3d56" rx="2.95" ry="3.008"/><path d="m598.152 267.8h-7.232a.534.534 0 0 0 -.521.579.519.519 0 0 0 .521.521h7.232a.534.534 0 0 0 .521-.578.519.519 0 0 0 -.521-.522z" fill="#3f3d56" transform="translate(-69.472 222.903)"/><path d="m598.152 271.4h-7.232a.534.534 0 0 0 -.521.579.519.519 0 0 0 .521.521h7.232a.534.534 0 0 0 .521-.579.519.519 0 0 0 -.521-.521z" fill="#3f3d56" transform="translate(-69.472 221.386)"/><path d="m598.152 274.9h-7.232a.534.534 0 0 0 -.521.579.519.519 0 0 0 .521.521h7.232a.534.534 0 0 0 .521-.579.519.519 0 0 0 -.521-.521z" fill="#3f3d56" transform="translate(-69.472 219.911)"/><path d="m687.89 446.574a4.394 4.394 0 0 0 -2.841-5.6c-.162-.081-.406-.081-.568-.162a2.247 2.247 0 0 0 -.73-.081l-28.326-.731a4.543 4.543 0 0 0 -3.409 1.461 6.266 6.266 0 0 0 -1.218-.162 6.738 6.738 0 1 0 -.325 13.473 6.957 6.957 0 0 0 2.922-.568l2.6 27.839a4.432 4.432 0 0 0 4.139 3.247l18.424.487a4.57 4.57 0 0 0 4.3-3zm-37.254 6.25a4.83 4.83 0 0 1 .162-9.658c.081 0 .162.081.244.081a5.742 5.742 0 0 0 0 2.354l1.867 6.655a3.67 3.67 0 0 1 -2.273.568z" fill="#ccc" transform="translate(-36.117 182.85)"/><path d="m686.855 440.812c-.568 3.49-7.386 5.844-15.583 5.438-7.467-.325-13.635-3-14.772-6.087a3.364 3.364 0 0 1 1.3-.162l28.326.73a2.288 2.288 0 0 1 .729.081z" fill="#f2f2f2" transform="translate(-38.491 182.85)"/><ellipse cx="360.496" cy="663.508" fill="#3f3d56" rx="16.314" ry="5.194"/><path d="m346.908 464.649h-2.435l.649-45.452a42.462 42.462 0 0 0 -20.615-36.929l-46.507-27.758 1.217-2.11 46.507 27.758a44.64 44.64 0 0 1 21.752 39.04z" fill="#3f3d56" transform="translate(14.806 202.351)"/><path d="m278.225 320.2a5.958 5.958 0 0 1 5.925 5.925v36.848a5.958 5.958 0 0 1 -5.925 5.925 5.958 5.958 0 0 1 -5.925-5.925v-36.848a5.906 5.906 0 0 1 5.925-5.925z" fill="#3f3d56" transform="translate(15.879 208.416)"/><path d="m270.337 384.3a17.771 17.771 0 0 1 -17.775-17.531l-.162-18.669h2.435l.165 18.668a15.242 15.242 0 0 0 15.421 15.1 15.088 15.088 0 0 0 9.253-3.247l16.557-13.067 1.542 1.948-16.557 12.986a17.562 17.562 0 0 1 -10.879 3.812z" fill="#3f3d56" transform="translate(19.628 203.16)"/><ellipse cx="275.68" cy="548.826" fill="#3f3d56" rx="7.305" ry="17.694"/><ellipse cx="360.496" cy="666.998" fill="#3f3d56" rx="16.314" ry="5.194"/><g transform="translate(-160.532 -308.993)"><g fill="#e6e6e6"><path d="m19.018 22.044a29.268 29.268 0 0 1 -10.893-19.973 2.3 2.3 0 0 0 -2.353-2.071l-3.533.1a2.3 2.3 0 0 0 -2.229 2.527 37.487 37.487 0 0 0 39.057 33.915 2.308 2.308 0 0 0 2.187-2.56l-.393-3.505a2.294 2.294 0 0 0 -2.361-2.043 29.255 29.255 0 0 1 -19.482-6.39z" transform="matrix(-.99254615 .12186934 -.12186934 -.99254615 1066.31741397974 783.04044919015)"/><path d="m10.864 22.248a29.251 29.251 0 0 0 19.114 6.4 2.3 2.3 0 0 0 2.215-2.56l-.293-2.615a2.3 2.3 0 0 0 -2.325-2.043 22.133 22.133 0 0 1 -22.354-19.397 2.3 2.3 0 0 0 -2.35-2.033l-2.632.077a2.3 2.3 0 0 0 -2.226 2.543 29.264 29.264 0 0 0 10.851 19.628z" transform="matrix(-.99254615 .12186934 -.12186934 -.99254615 1055.88262334552 788.08674455118)"/><path d="m11.778 12.176a16.216 16.216 0 0 1 -5.918-10.185 2.322 2.322 0 0 0 -2.349-1.991l-1.273.039a2.308 2.308 0 0 0 -2.212 2.653 22.133 22.133 0 0 0 21.847 18.914 2.291 2.291 0 0 0 2.25-2.56l-.141-1.27a2.322 2.322 0 0 0 -2.3-2.046 16.2 16.2 0 0 1 -9.904-3.554z" transform="matrix(-.99254615 .12186934 -.12186934 -.99254615 1046.32991099635 792.98947147634)"/></g><g fill="#fff" stroke="#e6e6e6" stroke-width="4"><rect height="128" rx="6" stroke="none" width="85" x="932" y="799.794"/><rect fill="none" height="124" rx="4" width="81" x="934" y="801.794"/></g><g fill="none" stroke="#e6e6e6" stroke-width="5"><circle cx="975" cy="830.794" r="9" stroke="none"/><circle cx="975" cy="830.794" fill="none" r="6.5"/></g><g fill="none" stroke="#e6e6e6" stroke-width="11"><circle cx="975" cy="879.794" r="20" stroke="none"/><circle cx="975" cy="879.794" fill="none" r="14.5"/></g></g><g transform="translate(-238.532 -263.478)"><g fill="#e6e6e6"><path d="m307.835 114.716a16.661 16.661 0 0 0 -5.994 11.284 1.276 1.276 0 0 1 -1.295 1.17l-1.944-.058a1.255 1.255 0 0 1 -.914-.439 1.325 1.325 0 0 1 -.312-.986 20.815 20.815 0 0 1 21.492-19.163 1.258 1.258 0 0 1 .907.456 1.328 1.328 0 0 1 .3.991l-.216 1.981a1.274 1.274 0 0 1 -1.3 1.154 15.825 15.825 0 0 0 -10.724 3.61z" transform="matrix(.99254615 .12186934 -.12186934 .99254615 647.53316610352 651.85600687738)"/><path d="m335.153 143.909a15.841 15.841 0 0 1 10.522-3.616 1.255 1.255 0 0 1 .919.449 1.322 1.322 0 0 1 .3 1l-.161 1.479a1.277 1.277 0 0 1 -1.28 1.154 12.29 12.29 0 0 0 -12.306 10.954 1.28 1.28 0 0 1 -1.293 1.148l-1.449-.043a1.252 1.252 0 0 1 -.919-.443 1.32 1.32 0 0 1 -.306-.993 16.641 16.641 0 0 1 5.973-11.089z" transform="matrix(.99254615 .12186934 -.12186934 .99254615 625.57934097786 620.36477791871)"/><path d="m364.871 176.791a9.2 9.2 0 0 0 -3.259 5.748 1.289 1.289 0 0 1 -1.294 1.123l-.7-.021a1.26 1.26 0 0 1 -.938-.468 1.326 1.326 0 0 1 -.28-1.029 12.29 12.29 0 0 1 12.033-10.674 1.249 1.249 0 0 1 .934.439 1.314 1.314 0 0 1 .305 1.005l-.078.717a1.29 1.29 0 0 1 -1.268 1.155 8.79 8.79 0 0 0 -5.455 2.005z" transform="matrix(.99254615 .12186934 -.12186934 .99254615 605.43257356517 591.31396437228)"/></g><g fill="#fff" stroke="#e6e6e6" stroke-width="2"><rect height="64" rx="3" stroke="none" width="42.5" x="949.578" y="818.278"/><rect fill="none" height="62" rx="2" width="40.5" x="950.578" y="819.278"/></g><g fill="none" stroke="#e6e6e6" stroke-width="2.5"><circle cx="971.078" cy="833.778" r="4.5" stroke="none"/><circle cx="971.078" cy="833.778" fill="none" r="3.25"/></g><g fill="none" stroke="#e6e6e6" stroke-width="5.5"><circle cx="971.078" cy="858.278" r="10" stroke="none"/><circle cx="971.078" cy="858.278" fill="none" r="7.25"/></g></g><path d="m688.854 365.632a104.927 104.927 0 0 1 8.684-33.117q1.96-4.379 4.314-8.564a.64.64 0 0 0 -1.1-.645 106.375 106.375 0 0 0 -11.837 32.657q-.889 4.8-1.336 9.669c-.079.818 1.2.813 1.275 0z" fill="#e6e6e6" transform="translate(-200.223 -154.608)"/><circle cx="504.725" cy="163.299" fill="#e6e6e6" r="8.094"/><path d="m689.89 368.323a68.074 68.074 0 0 1 5.634-21.484q1.271-2.841 2.8-5.556a.415.415 0 0 0 -.716-.418 69.015 69.015 0 0 0 -7.68 21.186q-.576 3.114-.866 6.273c-.05.53.779.527.828-.001z" fill="#e6e6e6" transform="translate(-200.431 -157.085)"/><circle cx="499.901" cy="180.277" fill="#e6e6e6" r="5.251"/><path d="m687.047 367.877a68.077 68.077 0 0 1 -8.772-20.405q-.744-3.022-1.21-6.1a.415.415 0 0 0 -.822.11 69.017 69.017 0 0 0 6.975 21.428q1.461 2.81 3.175 5.479c.288.447.94-.066.654-.512z" fill="#e6e6e6" transform="translate(-198.633 -157.134)"/><circle cx="477.602" cy="179.909" fill="#e6e6e6" r="5.251"/><path d="m670.059 375.347v-10.318a3.873 3.873 0 0 1 3.869-3.869h24.072a3.873 3.873 0 0 1 3.869 3.869v10.318a3.874 3.874 0 0 1 -3.869 3.869h-24.072a3.873 3.873 0 0 1 -3.869-3.869z" fill="#f2f2f2" transform="translate(-197.767 -159.958)"/><path d="m699.245 293.028h-10.317a3.873 3.873 0 0 1 -3.869-3.869v-42.13a3.873 3.873 0 0 1 3.869-3.869h10.317a3.873 3.873 0 0 1 3.869 3.869v42.129a3.873 3.873 0 0 1 -3.869 3.869z" fill="#f2f2f2" transform="translate(-199.87 -143.412)"/><path d="m485.619 107.916h17.196v3.439h-17.196z" fill="#ccc"/><path d="m485.619 134.569h17.196v3.439h-17.196z" fill="#ccc"/><path d="m729.246 293.028h-10.318a3.874 3.874 0 0 1 -3.869-3.869v-42.13a3.874 3.874 0 0 1 3.869-3.869h10.317a3.873 3.873 0 0 1 3.869 3.869v42.129a3.873 3.873 0 0 1 -3.869 3.869z" fill="#f2f2f2" transform="translate(-204.077 -143.412)"/><path d="m511.412 107.916h17.196v3.439h-17.196z" fill="#ccc"/><path d="m511.412 134.569h17.196v3.439h-17.196z" fill="#ccc"/><path d="m759.245 293.028h-10.317a3.873 3.873 0 0 1 -3.869-3.869v-42.13a3.873 3.873 0 0 1 3.869-3.869h10.317a3.873 3.873 0 0 1 3.869 3.869v42.129a3.873 3.873 0 0 1 -3.869 3.869z" fill="#f2f2f2" transform="translate(-208.283 -143.412)"/><path d="m537.206 107.916h17.196v3.439h-17.196z" fill="#ccc"/><path d="m537.206 134.569h17.196v3.439h-17.196z" fill="#ccc"/><path d="m775.246 374.028h-10.318a3.874 3.874 0 0 1 -3.869-3.869v-42.13a3.874 3.874 0 0 1 3.869-3.869h10.317a3.874 3.874 0 0 1 3.869 3.869v42.129a3.874 3.874 0 0 1 -3.868 3.87z" fill="#f2f2f2" transform="translate(-210.526 -154.771)"/><path d="m550.962 177.558h17.196v3.439h-17.196z" fill="#ccc"/><path d="m550.962 204.212h17.196v3.439h-17.196z" fill="#ccc"/><path d="m805.246 374.028h-10.318a3.874 3.874 0 0 1 -3.869-3.869v-42.13a3.874 3.874 0 0 1 3.869-3.869h10.317a3.873 3.873 0 0 1 3.869 3.869v42.129a3.874 3.874 0 0 1 -3.868 3.87z" fill="#f2f2f2" transform="translate(-214.733 -154.771)"/><path d="m576.756 177.558h17.196v3.439h-17.196z" fill="#ccc"/><path d="m576.756 204.212h17.196v3.439h-17.196z" fill="#ccc"/><path d="m835.246 374.028h-10.318a3.874 3.874 0 0 1 -3.869-3.869v-42.13a3.874 3.874 0 0 1 3.869-3.869h10.317a3.873 3.873 0 0 1 3.869 3.869v42.129a3.874 3.874 0 0 1 -3.868 3.87z" fill="#f2f2f2" transform="translate(-218.94 -154.771)"/><path d="m602.549 177.558h17.196v3.439h-17.196z" fill="#ccc"/><path d="m602.549 204.212h17.196v3.439h-17.196z" fill="#ccc"/><path d="m696.246 455.028h-10.318a3.873 3.873 0 0 1 -3.869-3.869v-42.13a3.873 3.873 0 0 1 3.869-3.869h10.318a3.873 3.873 0 0 1 3.869 3.869v42.129a3.873 3.873 0 0 1 -3.869 3.87z" fill="#f2f2f2" transform="translate(-199.45 -166.127)"/><path d="m483.039 247.201h17.196v3.439h-17.196z" fill="#ccc"/><path d="m483.039 273.854h17.196v3.439h-17.196z" fill="#ccc"/><path d="m726.246 455.028h-10.318a3.873 3.873 0 0 1 -3.869-3.869v-42.13a3.873 3.873 0 0 1 3.869-3.869h10.317a3.873 3.873 0 0 1 3.869 3.869v42.129a3.873 3.873 0 0 1 -3.868 3.87z" fill="#f2f2f2" transform="translate(-203.656 -166.127)"/><path d="m508.832 247.201h17.196v3.439h-17.196z" fill="#ccc"/><path d="m508.832 273.854h17.196v3.439h-17.196z" fill="#ccc"/><path d="m756.245 455.028h-10.317a3.873 3.873 0 0 1 -3.869-3.869v-42.13a3.873 3.873 0 0 1 3.869-3.869h10.317a3.873 3.873 0 0 1 3.869 3.869v42.129a3.873 3.873 0 0 1 -3.869 3.87z" fill="#f2f2f2" transform="translate(-207.863 -166.127)"/><path d="m534.626 247.201h17.196v3.439h-17.196z" fill="#ccc"/><path d="m534.626 273.854h17.196v3.439h-17.196z" fill="#ccc"/><path d="m789.246 293.028h-10.318a3.873 3.873 0 0 1 -3.869-3.869v-42.13a3.873 3.873 0 0 1 3.869-3.869h10.317a3.873 3.873 0 0 1 3.869 3.869v42.129a3.873 3.873 0 0 1 -3.869 3.869z" fill="#f2f2f2" transform="translate(-212.489 -143.412)"/><path d="m563 107.916h17.196v3.439h-17.196z" fill="#ccc"/><path d="m563 134.569h17.196v3.439h-17.196z" fill="#ccc"/><path d="m819.246 293.028h-10.318a3.873 3.873 0 0 1 -3.869-3.869v-42.13a3.873 3.873 0 0 1 3.869-3.869h10.318a3.874 3.874 0 0 1 3.869 3.869v42.129a3.874 3.874 0 0 1 -3.869 3.869z" fill="#f2f2f2" transform="translate(-216.696 -143.412)"/><path d="m588.793 107.916h17.196v3.439h-17.196z" fill="#ccc"/><path d="m588.793 134.569h17.196v3.439h-17.196z" fill="#ccc"/><path d="m849.246 293.028h-10.318a3.873 3.873 0 0 1 -3.869-3.869v-42.13a3.873 3.873 0 0 1 3.869-3.869h10.317a3.873 3.873 0 0 1 3.869 3.869v42.129a3.873 3.873 0 0 1 -3.869 3.869z" fill="#f2f2f2" transform="translate(-220.902 -143.412)"/><path d="m614.586 107.916h17.196v3.439h-17.196z" fill="#ccc"/><path d="m614.586 134.569h17.196v3.439h-17.196z" fill="#ccc"/><path d="m879.245 293.028h-10.317a3.873 3.873 0 0 1 -3.869-3.869v-42.13a3.873 3.873 0 0 1 3.869-3.869h10.317a3.873 3.873 0 0 1 3.869 3.869v42.129a3.873 3.873 0 0 1 -3.869 3.869z" fill="#f2f2f2" transform="translate(-225.109 -143.412)"/><path d="m640.38 107.916h17.196v3.439h-17.196z" fill="#ccc"/><path d="m640.38 134.569h17.196v3.439h-17.196z" fill="#ccc"/><path d="m886.4 302.38h-245.04a.86.86 0 0 1 0-1.72h245.04a.86.86 0 0 1 0 1.72z" fill="#ccc" transform="translate(-193.622 -151.474)"/><path d="m886.4 383.38h-245.04a.86.86 0 0 1 0-1.719h245.04a.86.86 0 0 1 0 1.719z" fill="#ccc" transform="translate(-193.622 -162.832)"/><path d="m886.4 464.38h-245.04a.86.86 0 0 1 0-1.72h245.04a.86.86 0 0 1 0 1.72z" fill="#ccc" transform="translate(-193.622 -174.19)"/><path d="m853.854 446.632a104.937 104.937 0 0 1 8.684-33.116q1.96-4.378 4.315-8.564a.64.64 0 0 0 -1.1-.645 106.377 106.377 0 0 0 -11.837 32.657q-.889 4.8-1.336 9.669c-.08.817 1.199.812 1.274-.001z" fill="#e6e6e6" transform="translate(-223.358 -165.966)"/><circle cx="646.59" cy="232.941" fill="#e6e6e6" r="8.094"/><path d="m854.891 449.324a68.071 68.071 0 0 1 5.634-21.484q1.271-2.841 2.8-5.556a.415.415 0 0 0 -.716-.418 69.015 69.015 0 0 0 -7.679 21.186q-.577 3.114-.867 6.273c-.051.53.779.526.828-.001z" fill="#e6e6e6" transform="translate(-223.566 -168.442)"/><circle cx="641.765" cy="249.92" fill="#e6e6e6" r="5.251"/><path d="m852.046 448.877a68.078 68.078 0 0 1 -8.772-20.405q-.744-3.022-1.21-6.1a.415.415 0 0 0 -.822.11 69.011 69.011 0 0 0 6.975 21.428q1.461 2.81 3.175 5.479c.288.449.94-.064.654-.51z" fill="#e6e6e6" transform="translate(-221.77 -168.491)"/><circle cx="619.466" cy="249.551" fill="#e6e6e6" r="5.251"/><g fill="#f2f2f2"><path d="m835.059 456.347v-10.318a3.873 3.873 0 0 1 3.869-3.869h24.072a3.873 3.873 0 0 1 3.869 3.869v10.317a3.873 3.873 0 0 1 -3.869 3.87h-24.072a3.873 3.873 0 0 1 -3.869-3.869z" transform="translate(-220.902 -171.315)"/><path d="m527.706 93.5h-41a6.257 6.257 0 0 1 -6.25-6.25v-41a6.257 6.257 0 0 1 6.25-6.25h41a6.257 6.257 0 0 1 6.25 6.25v41a6.257 6.257 0 0 1 -6.25 6.25zm-41-52.5a5.25 5.25 0 0 0 -5.25 5.25v41a5.25 5.25 0 0 0 5.25 5.25h28.719a17.531 17.531 0 0 0 17.531-17.531v-28.719a5.25 5.25 0 0 0 -5.25-5.25z" transform="translate(-374.538 32.986)"/><path d="m527.706 93.5h-41a6.257 6.257 0 0 1 -6.25-6.25v-41a6.257 6.257 0 0 1 6.25-6.25h41a6.257 6.257 0 0 1 6.25 6.25v41a6.257 6.257 0 0 1 -6.25 6.25z" transform="translate(-374.538 32.986)"/><circle cx="132.418" cy="58.486" r="5.5"/><path d="m420.234 255.214h-41a6.257 6.257 0 0 1 -6.25-6.25v-41a6.257 6.257 0 0 1 6.25-6.25h41a6.257 6.257 0 0 1 6.25 6.25v41a6.257 6.257 0 0 1 -6.25 6.25zm-41-52.5a5.25 5.25 0 0 0 -5.25 5.25v41a5.25 5.25 0 0 0 5.25 5.25 46.25 46.25 0 0 0 46.25-46.25 5.25 5.25 0 0 0 -5.25-5.25z" transform="translate(-341.802 5.773)"/><circle cx="57.682" cy="192.986" r="5.5"/><path d="m421.317 241.411a3.464 3.464 0 1 1 2.443-2.744 8.914 8.914 0 0 1 -1.709 3.422c-.795 1.16-1.625 2.294-2.482 3.409-1.937 2.521-4 4.94-6.066 7.358a.761.761 0 0 0 .53 1.28l11.732 1.073c.961.088.955-1.413 0-1.5l-11.732-1.073.53 1.28c2.272-2.665 4.541-5.335 6.656-8.128a49.251 49.251 0 0 0 2.9-4.126 6.405 6.405 0 0 0 1.125-4.2 4.953 4.953 0 1 0 -3.533 5.4.751.751 0 0 0 -.4-1.446z" transform="translate(-361.959 -9.938)"/><path d="m607.706 355.5h-41a6.257 6.257 0 0 1 -6.25-6.25v-41a6.257 6.257 0 0 1 6.25-6.25h41a6.257 6.257 0 0 1 6.25 6.25v41a6.257 6.257 0 0 1 -6.25 6.25zm-41-52.5a5.25 5.25 0 0 0 -5.25 5.25v41a5.25 5.25 0 0 0 5.25 5.25 46.25 46.25 0 0 0 46.25-46.25 5.25 5.25 0 0 0 -5.25-5.25z" transform="translate(-428.037 -8.014)"/><circle cx="158.918" cy="279.486" r="5.5"/><path d="m603.711 335.909c2.566-1.3 5.98-.35 6.918 2.529a3.851 3.851 0 0 1 -4.008 5.157v1.5a6.845 6.845 0 0 1 4.542 1.948 4.624 4.624 0 0 1 1.179 4.342 3.684 3.684 0 0 1 -6.955.336c-.357-.884-1.808-.5-1.446.4a5.229 5.229 0 0 0 7.97 2.353c2.855-2.144 2.565-6.365.1-8.7a8.552 8.552 0 0 0 -5.393-2.178c-.973-.063-.945 1.405 0 1.5a5.311 5.311 0 0 0 4.636-2.09 5.385 5.385 0 0 0 .819-4.966c-1.243-3.834-5.674-5.178-9.121-3.425-.861.438-.1 1.732.757 1.3z" transform="translate(-449.098 -23.942)"/></g></svg>