<svg xmlns="http://www.w3.org/2000/svg" xmlns:xlink="http://www.w3.org/1999/xlink" width="24" height="24" viewBox="0 0 24 24"><defs><style>.a{fill:none;}.b,.f{fill:#c9c9c9;}.b{clip-rule:evenodd;}.c{clip-path:url(#a);}.d{fill:rgba(215,215,215,0);}.e{clip-path:url(#b);}</style><clipPath id="a"><path class="a" d="M0,0H24V-24H0Z"/></clipPath><clipPath id="b"><path class="b" d="M12.576-19a2.094,2.094,0,0,1,1.382.524l5.536,4.861a1.1,1.1,0,0,1,.371.826v7.712a1.29,1.29,0,0,1-1.274,1.305H15.353a1.075,1.075,0,0,1-1.062-1.088V-7.466a.538.538,0,0,0-.531-.544H11.105a.538.538,0,0,0-.531.544v2.607A1.075,1.075,0,0,1,9.513-3.771H6.274A1.29,1.29,0,0,1,5-5.077v-7.712a1.1,1.1,0,0,1,.371-.826l5.536-4.861A2.094,2.094,0,0,1,12.289-19Zm-.144,3.263a1.075,1.075,0,0,0-1.062,1.088,1.075,1.075,0,0,0,1.062,1.088,1.075,1.075,0,0,0,1.062-1.088A1.075,1.075,0,0,0,12.433-15.737Z"/></clipPath></defs><g transform="translate(0 24)"><g class="c"><path class="d" d="M-5-29H29V5H-5Z"/></g><g class="e" transform="translate(-0.433 -0.796)"><path class="f" d="M0-24H25.483V2.106H0Z" transform="translate(-0.309 -0.439)"/></g></g></svg>