<svg xmlns="http://www.w3.org/2000/svg" width="24" height="24" viewBox="0 0 24 24"><defs><style>.a{fill:none;}.b,.c{fill:#c9c9c9;}.b{stroke:rgba(0,0,0,0);stroke-width:1.1px;}</style></defs><path class="a" d="M0,0H24V24H0Z"/><path class="b" d="M9.8,14.7H4.2c-.109,0-.165-.12-.182-.233-.028-.187.032-.408.182-.454A14.012,14.012,0,0,0,5.6,11.62H.7A1.477,1.477,0,0,1-.7,10.08V.84A1.477,1.477,0,0,1,.7-.7H13.3A1.476,1.476,0,0,1,14.7.84v9.24a1.476,1.476,0,0,1-1.4,1.54H8.4a14.655,14.655,0,0,0,1.4,2.31.551.551,0,0,1,.214.564C9.987,14.627,9.911,14.7,9.8,14.7ZM7,2.273a3,3,0,1,0,3,3A3,3,0,0,0,7,2.273Z" transform="translate(5 4.728)"/><path class="c" d="M1.728.385a.218.218,0,0,1,.348,0l1.2,1.6a.218.218,0,0,1-.174.348H.706A.218.218,0,0,1,.532,1.98Z" transform="translate(13.664 8.075) rotate(90)"/></svg>